<?xml version="1.0" encoding="UTF-8"?>
<svg class="db" width="16" height="16" version="1.1" viewBox="0 0 16 16" xmlns="http://www.w3.org/2000/svg">
 <path d="m15.06 7.8118c0 3.3802-4.0407 5.1761-7.06 8.1909-3.0192-3.0148-7.06-4.8106-7.06-8.1909 0-0.70423 0.20687-1.3602 0.56318-1.9107-0.080594-0.38816-0.12532-0.77141-0.1366-1.145-0.011656-0.38281 0.011307-0.75531 0.061699-1.1139 0.1012-0.71761 0.3085-1.378 0.57679-1.9842 0.1345-0.30316 0.2849-0.59321 0.44892-0.87037 0.082009-0.13855 0.16751-0.27389 0.25664-0.4056 0.089268-0.13151 0.1814-0.26037 0.28016-0.38212-0.017937 0.15513-0.026103 0.30971-0.03071 0.46352-0.0043273 0.15374-0.0036992 0.30671 0.0012563 0.4585 0.0099807 0.3035 0.037271 0.60234 0.08166 0.89302 0.088431 0.58122 0.24687 1.1309 0.47328 1.6088 0.113 0.2389 0.24261 0.4594 0.38597 0.65705 0.057576 0.079484 0.11731 0.15522 0.17906 0.22719 0.1276-0.013963 0.25727-0.021116 0.38859-0.021116 1.9496 0 3.5301 1.6382 3.5301 1.6382s1.5806-1.6382 3.5301-1.6382c0.13219 0 0.26278 0.0072479 0.3912 0.021395 0.061772-0.072061 0.12159-0.14788 0.17924-0.22747 0.14337-0.19764 0.27306-0.41815 0.38599-0.65705 0.22643-0.47787 0.38487-1.0276 0.47338-1.6088 0.044323-0.29068 0.071684-0.58952 0.081596-0.89302 0.0049557-0.15179 0.0055839-0.30476 0.0013262-0.4585-0.0046766-0.15381-0.012843-0.30838-0.030712-0.46352 0.098766 0.12175 0.19083 0.25061 0.2801 0.38212 0.089134 0.13172 0.17464 0.26706 0.25665 0.4056 0.16403 0.27716 0.31445 0.56722 0.44895 0.87037 0.26838 0.60617 0.47561 1.2666 0.57689 1.9842 0.050325 0.35856 0.073359 0.73106 0.061703 1.1139-0.011377 0.37459-0.056328 0.75894-0.13946 1.145 0.35615 0.55049 0.56303 1.2065 0.56303 1.9107z" fill="#cc0000"/>
</svg>
