<?xml version="1.0" encoding="UTF-8"?>
<svg width="24" height="24" fill="none" version="1.1" viewBox="0 0 24 24" xmlns="http://www.w3.org/2000/svg">
 <path d="m12 0a12 12 0 0 0-12 12 12 12 0 0 0 12 12 12 12 0 0 0 12-12 12 12 0 0 0-12-12zm-1.5168 6c0.41134 0 0.73322 0.19033 0.9646 0.57129 0.23996 0.37249 0.35962 0.91016 0.35962 1.6128 0 1.0074-0.28257 2.1755-0.84814 3.5046-0.56558 1.3291-1.3329 2.6455-2.3013 3.9492 0.059963 0.3471 0.1588 0.59687 0.2959 0.74927 0.13714 0.14389 0.31697 0.21606 0.53979 0.21606 0.35134 0 0.66017-0.09754 0.92578-0.29224 0.22851-0.17477 0.51404-0.45934 0.85034-0.84082 5.99e-4 4e-3 0.0016 0.0077 0.0022 0.01172-0.05235-0.34739-0.0791-0.7226-0.0791-1.1265 0-1.0328 0.13279-2.2096 0.39844-3.5303 0.2742-1.3206 0.67256-2.4547 1.1953-3.4028 0.5313-0.94815 1.1612-1.4224 1.8896-1.4224 0.41134 0 0.73249 0.19033 0.96387 0.57129 0.23996 0.37249 0.35962 0.91016 0.35962 1.6128 0 1.0074-0.28257 2.1755-0.84814 3.5046-0.55702 1.3291-1.3197 2.6416-2.2881 3.9368 0.06 0.3471 0.16726 0.5969 0.32153 0.74927 0.15424 0.1524 0.36423 0.22852 0.62988 0.22852 0.14565 0 0.30856-0.04277 0.48852-0.12744 0.18851-0.08464 0.35992-0.19414 0.51416-0.32959 0.09424-0.08467 0.18844-0.12744 0.28272-0.12744 0.10282 0 0.18393 0.05948 0.2439 0.17798 0.06859 0.11006 0.10327 0.24566 0.10327 0.4065 0 0.35558-0.12889 0.63869-0.38599 0.85034-0.44558 0.36401-0.95127 0.54639-1.5168 0.54639-0.81409 0-1.4094-0.33464-1.7864-1.0034-0.04258-0.076482-0.08235-0.15638-0.12012-0.23804-0.29613 0.31742-0.61236 0.58818-0.94922 0.81006-0.42848 0.28781-0.91641 0.4314-1.4648 0.4314-0.75412 0-1.3161-0.33862-1.6846-1.0159-0.35989-0.67725-0.53979-1.5535-0.53979-2.6287 0-1.0328 0.13279-2.2096 0.39844-3.5303 0.2742-1.3206 0.67329-2.4547 1.196-3.4028 0.5313-0.94815 1.1606-1.4224 1.8889-1.4224zm-0.28271 1.2568c-0.19706 3e-7 -0.41946 0.35128-0.66797 1.054-0.24851 0.70264-0.46701 1.5749-0.65552 2.6162-0.18855 1.0413-0.29194 2.0404-0.30908 2.9971 0.60844-0.99049 1.0932-1.9809 1.4531-2.9714 0.35989-0.99893 0.5398-1.9093 0.5398-2.7305 0-0.64339-0.12039-0.96533-0.36035-0.96533zm4.1931 0c-0.1971 0-0.42019 0.35128-0.6687 1.054-0.24851 0.70264-0.467 1.5749-0.65552 2.6162-0.18855 1.0413-0.29121 2.0404-0.30835 2.9971 0.60844-0.99049 1.0925-1.9809 1.4524-2.9714 0.35992-0.99893 0.5398-1.9093 0.5398-2.7305 0-0.64339-0.11966-0.96533-0.35962-0.96533z" fill="#fff" stroke-width=".375"/>
</svg>
